<svg width="489" height="570" xmlns="http://www.w3.org/2000/svg">

 <g>
  <title>background</title>
  <rect fill="none" id="canvas_background" height="572" width="491" y="-1" x="-1"/>
 </g>
 <g>
  <title>Layer 1</title>
  <path id="svg_1" fill="#f9a7a7" d="m177.53516,164.92188l-54.21485,0c-17.82812,0 -34.40234,9.17968 -43.85937,24.29687l-48.30078,77.19531c-6.14063,9.82032 -9.39844,21.17188 -9.39844,32.75391l0,146.15234c0,22.02735 17.85156,39.87891 39.87891,39.87891l7.74609,0c7.34375,0 14.52344,-2.15625 20.65234,-6.19922l20.82813,-13.73828l56.58594,-10.6875c18.49218,-3.48828 32.36328,-19.41797 32.51562,-38.23828c0,-0.13282 0,-0.26563 0,-0.39844l0,-228.58203c-0.00391,-12.39063 -10.04297,-22.4336 -22.43359,-22.4336l0,0.00001zm0,0"/>
  <path id="svg_2" fill="#f9a7a7" d="m314.62109,164.92188l54.21485,0c17.82812,0 34.40234,9.17968 43.85937,24.29687l48.29688,77.19531c6.14453,9.82032 9.40234,21.17188 9.40234,32.75391l0,146.15234c0,22.02735 -17.85156,39.87891 -39.8789,39.87891l-7.7461,0c-7.34375,0 -14.52734,-2.15625 -20.65234,-6.19922l-20.82813,-13.73828l-56.58594,-10.6875c-18.49218,-3.48828 -32.36328,-19.41797 -32.51562,-38.23828c0,-0.13282 0,-0.26563 0,-0.39844l0,-228.58203c0,-12.39063 10.04297,-22.4336 22.43359,-22.4336l0,0.00001zm0,0"/>
  <path id="svg_3" fill="#3762cc" d="m69.38672,489.19922l-7.75,0c-24.19531,0 -43.87891,-19.68359 -43.87891,-43.87891l0,-146.14843c0,-12.35157 3.46094,-24.41016 10.01172,-34.875l48.29688,-77.19922c10.25781,-16.39063 27.92187,-26.17578 47.2539,-26.17578l54.21485,0c14.57422,0 26.42968,11.85546 26.42968,26.43359l0,229.00781c-0.16406,20.53906 -15.20703,38.26172 -35.77343,42.14453l-55.79688,10.53516l-20.15234,13.29687c-6.80078,4.48438 -14.70703,6.85938 -22.85547,6.85938zm53.93359,-320.27734c-16.55468,0 -31.68359,8.3789 -40.46875,22.41796l-48.30078,77.19922c-5.75,9.19141 -8.78906,19.78516 -8.78906,30.62891l0,146.15234c0,19.78516 16.09375,35.87891 35.87891,35.87891l7.74609,0c6.58203,0 12.96094,-1.91406 18.44922,-5.53906l20.82422,-13.73828c0.44531,-0.29297 0.9414,-0.4961 1.46093,-0.59375l56.58594,-10.6836c16.82031,-3.17969 29.12891,-17.62109 29.25781,-34.34375l0,-228.94531c0,-10.16406 -8.26562,-18.43359 -18.42968,-18.43359l-54.21485,0zm0,0"/>
  <path id="svg_4" fill="#3762cc" d="m430.51563,489.19922l-7.7461,0c-8.15234,0 -16.05469,-2.375 -22.85547,-6.85938l-20.15234,-13.29687l-55.79688,-10.53516c-20.5664,-3.88281 -35.60937,-21.60937 -35.77343,-42.14062l0,-229.01172c0,-14.57813 11.85547,-26.43359 26.42968,-26.43359l54.21485,0c19.33593,0 37,9.78515 47.25,26.17578l48.30078,77.19922c6.55078,10.46484 10.01172,22.52343 10.01172,34.875l0,146.14843c-0.00391,24.19532 -19.6875,43.87891 -43.88282,43.87891l0.00001,0zm-115.89454,-320.27734c-10.16406,0 -18.43359,8.26953 -18.43359,18.43359l0,228.94922c0.13281,16.72265 12.4375,31.16406 29.25781,34.34375l56.58594,10.68359c0.52344,0.09766 1.01953,0.29688 1.46094,0.59375l20.82422,13.73828c5.48828,3.625 11.87109,5.53906 18.44922,5.53906l7.75,0c19.78515,0 35.8789,-16.09765 35.8789,-35.8789l0,-146.15234c0,-10.84766 -3.04297,-21.4375 -8.79297,-30.62891l-48.30078,-77.19922c-8.78125,-14.03906 -23.91015,-22.41797 -40.46875,-22.41797l-54.21094,0l0,-0.0039zm0,0"/>
  <path id="svg_5" fill="#e0ebfc" d="m108.55469,215.92188c2.92187,2.35546 0.30078,8.89453 1.66797,12.29687c1.32812,3.30078 7.82422,5.94531 7.68359,9.73828c-0.13281,3.52344 -6.80859,5.91406 -8.21484,9.45313c-1.30078,3.28125 2.08984,9.53515 -0.30469,12.50781c-2.39453,2.96875 -9.22656,0.98828 -12.15625,2.95703c-3.16016,2.12891 -4.07422,9.16016 -7.48828,10.03516c-3.67969,0.94922 -7.64063,-4.83985 -11.15235,-5.4336c-3.61718,-0.61328 -9.44921,3.33594 -12.37109,0.98438c-2.92187,-2.35547 -0.30469,-8.89453 -1.66797,-12.29688c-1.32812,-3.30078 -7.82812,-5.94531 -7.68359,-9.73828c0.1289,-3.52734 6.80859,-5.91406 8.21094,-9.45703c1.30078,-3.27734 -2.08594,-9.53125 0.30859,-12.50391s9.22656,-0.99218 12.15234,-2.95703c3.16407,-2.1289 4.07422,-9.16015 7.49219,-10.03906c3.67578,-0.94531 7.64063,4.84375 11.15234,5.4375c3.61719,0.61328 9.44922,-3.33984 12.3711,-0.98437zm0,0"/>
  <path id="svg_6" fill="#f9cfcf" d="m383.25781,287.10156l-1.98047,-1.98047c-5.05078,-5.05468 -13.23828,-5.05468 -18.28906,-0.0039l-23.17969,23.18359c-1.5625,1.5625 -4.09375,1.5625 -5.65625,0l-62.2539,-62.2539c-5.13281,-5.13282 -13.44922,-5.13282 -18.58203,0l-7.23828,7.23437l-7.23829,-7.24219c-5.13281,-5.13281 -13.45312,-5.13281 -18.58203,0l-62.2539,62.25782c-1.5625,1.5625 -4.09375,1.5625 -5.65625,0l-23.17578,-23.17969c-5.05079,-5.05078 -13.23829,-5.05078 -18.28907,0l-1.98437,1.98047c-5.04688,5.04687 -5.05078,13.23437 0,18.28125l23.18359,23.18359c1.5625,1.5625 1.5625,4.09375 0,5.65625l-18.38281,18.38672c-5.13281,5.1289 -5.13281,13.44922 0,18.58203l7.85547,7.85547c5.13281,5.13281 13.44922,5.13281 18.58203,0l103.11719,-103.11719c1.5625,-1.5625 4.09375,-1.5625 5.65625,0l103.12109,103.1211c5.13281,5.13281 13.44922,5.13281 18.58203,0l7.85547,-7.85547c5.13281,-5.13282 5.13281,-13.45313 0,-18.58203l-18.38281,-18.38672c-1.5625,-1.5625 -1.5625,-4.09375 0,-5.65625l23.17969,-23.17969c5.03906,-5.04688 5.03906,-13.23828 -0.00782,-18.28516zm0,0"/>
  <path id="svg_7" fill="#f9cfcf" d="m235.34766,69.12891c-4.41797,0 -8,3.58203 -8,8l0,187.0039c0,4.91797 5.22265,8.90625 11.66797,8.90625l14.05078,0c6.44531,0 11.66406,-3.98828 11.66406,-8.90625l0,-187.0039c0,-4.41797 -3.58203,-8 -8,-8l-21.38281,0zm0,0"/>
  <g id="svg_8" fill="#e0ebfc">
   <path id="svg_9" d="m227.34766,206.24609l37.38672,0l0,24l-37.38672,0l0,-24zm0,0"/>
   <path id="svg_10" d="m227.34766,166.24609l37.38672,0l0,24l-37.38672,0l0,-24zm0,0"/>
   <path id="svg_11" d="m227.34766,126.24609l37.38672,0l0,24l-37.38672,0l0,-24zm0,0"/>
   <path id="svg_12" d="m227.34766,86.24609l37.38672,0l0,24l-37.38672,0l0,-24zm0,0"/>
  </g>
  <path id="svg_13" fill="#3762cc" d="m130.83984,386.89063c-4.57812,0 -8.88281,-1.78125 -12.12109,-5.01954l-7.85547,-7.85546c-6.68359,-6.6875 -6.68359,-17.5586 0,-24.23829l18.38281,-18.38671l-23.18359,-23.1836c-3.19922,-3.19531 -4.95703,-7.44922 -4.95703,-11.96875c0,-4.52344 1.76172,-8.77344 4.95703,-11.96875l1.98438,-1.98437c6.60156,-6.59375 17.34375,-6.59375 23.94531,0.0039l23.17969,23.17969l62.2539,-62.25391c1.69922,-1.70312 3.70703,-3.00781 5.91797,-3.85937l0,-162.22266c0,-6.61718 5.37891,-12 12,-12l21.38281,0c6.6211,0 12,5.38282 12,12l0,162.20313c2.23828,0.85156 4.26953,2.16015 5.99219,3.8789l62.25391,62.25782l23.18359,-23.1836c3.19922,-3.19531 7.44922,-4.95703 11.96875,-4.95703l0.00391,0c4.51953,0 8.77343,1.76172 11.97265,4.96094l1.97656,1.98047c6.60157,6.60156 6.60157,17.34375 -0.0039,23.9414l-23.17578,23.17969l18.38281,18.38672c3.23828,3.23438 5.01953,7.53906 5.01953,12.11719c0,4.57812 -1.78125,8.88281 -5.01953,12.12109l-7.85547,7.85547c-6.67969,6.68359 -17.55469,6.68359 -24.23828,0l-103.12109,-103.12109l-103.11719,103.11718c-3.23047,3.23829 -7.53516,5.01954 -12.10938,5.01954zm115.23438,-116.13672c2.05078,0 4.09766,0.78125 5.65625,2.33984l103.125,103.125c3.5625,3.5625 9.35937,3.55859 12.92578,0l7.85547,-7.85547c1.72656,-1.72656 2.67578,-4.02344 2.67578,-6.46484c0,-2.4375 -0.94922,-4.73438 -2.67578,-6.46094l-18.39063,-18.38672c-3.11718,-3.11719 -3.11718,-8.1914 0,-11.3125l23.17969,-23.17969c3.48047,-3.48046 3.48438,-9.14843 0.00391,-12.6289l-1.98047,-1.98047c-1.6875,-1.6875 -3.92969,-2.61719 -6.31641,-2.61719c0,0 0,0 -0.0039,0c-2.38282,0 -4.625,0.92969 -6.3125,2.61719l-23.17969,23.17969c-3.02344,3.02343 -8.29297,3.02343 -11.31641,0l-62.2539,-62.25391c-1.35157,-1.35156 -3.07422,-2.23047 -4.97657,-2.53906c-1.9375,-0.31641 -3.35546,-1.98828 -3.35546,-3.94922l0,-165.25391c0,-2.20703 -1.79297,-4 -4,-4l-21.38672,0c-2.20703,0 -4,1.79297 -4,4l0,165.25391c0,1.95703 -1.41016,3.62109 -3.33203,3.94922c-1.88282,0.3125 -3.58594,1.1914 -4.92969,2.53515l-62.25391,62.25391c-3.11719,3.12109 -8.19531,3.12109 -11.3125,0l-23.17969,-23.17969c-3.48437,-3.48047 -9.14843,-3.48437 -12.63281,0l-1.98047,1.98047c-1.6875,1.6875 -2.61718,3.92969 -2.61718,6.3125c0,2.38281 0.92578,4.625 2.61328,6.3125l23.18359,23.1836c3.12109,3.12109 3.12109,8.19531 0,11.3125l-18.38281,18.38671c-3.56641,3.5586 -3.56641,9.35938 0,12.92579l7.85156,7.85546c3.56641,3.5625 9.36328,3.5586 12.92578,0l103.11719,-103.12109c1.55859,-1.55859 3.60937,-2.33984 5.65625,-2.33984zm0,0"/>
  <path id="svg_14" fill="#a4c9ff" d="m30.91016,164.87109l24.72265,0l25.83985,57.9336c1.18359,2.64844 4.9414,2.64844 6.125,0l25.83984,-57.9336l24.71875,0c14.80859,0 26.8125,-12.0039 26.8125,-26.8125l0,-107.24609c0,-14.80859 -12.00391,-26.8125 -26.8125,-26.8125l-107.24609,0c-14.80469,0 -26.8086,12.00391 -26.8086,26.8125l0,107.24609c0,14.8086 12.00391,26.8125 26.8086,26.8125zm0,0"/>
  <path id="svg_15" fill="#e0ebfc" d="m138.15625,20.01953c5.54688,0 10.05469,4.51172 10.05469,10.05469l0,107.24609c0,5.54688 -4.50781,10.05469 -10.05469,10.05469l-107.24609,0c-5.54297,0 -10.05078,-4.50781 -10.05078,-10.05469l0,-107.24609c0,-5.54297 4.50781,-10.05078 10.05078,-10.05078l107.24609,0l0,-0.00391zm0,0"/>
  <path id="svg_16" fill="#3762cc" d="m84.53906,228.78906c-2.94531,0 -5.51562,-1.66797 -6.71875,-4.35547l-24.78125,-55.5625l-22.1289,0c-16.98828,0 -30.8086,-13.82031 -30.8086,-30.8125l0,-107.25c0,-16.98828 13.82032,-30.80859 30.8086,-30.80859l107.25,0c16.98828,0 30.8125,13.82031 30.8125,30.80859l0,107.25c0,16.98829 -13.82422,30.8125 -30.8125,30.8125l-22.12891,0l-24.78516,55.5625c-1.19531,2.6875 -3.76953,4.35547 -6.70703,4.35547zm0.58985,-7.61328l0.01953,0l-0.01953,0zm-54.21875,-213.17578c-12.57813,0 -22.8086,10.23047 -22.8086,22.80859l0,107.25c0,12.57813 10.23438,22.8125 22.8086,22.8125l24.72265,0c1.58203,0 3.01172,0.92579 3.65625,2.3711l25.2461,56.60547l25.25,-56.60547c0.64453,-1.44531 2.07422,-2.3711 3.65234,-2.3711l24.72266,0c12.57812,0 22.8125,-10.23437 22.8125,-22.8125l0,-107.25c0,-12.57812 -10.23438,-22.80859 -22.8125,-22.80859l-107.25,0zm0,0"/>
  <path id="svg_17" fill="#f9a7a7" d="m136.64844,83.72656c0,5.32422 -8.64844,9.21485 -10.20703,14.01563c-1.61719,4.98047 3.03515,13.19922 0.01953,17.34375c-3.04688,4.18359 -12.32422,2.28515 -16.50781,5.32812c-4.14454,3.01953 -5.1836,12.44141 -10.16016,14.0586c-4.80469,1.55859 -11.16406,-5.40235 -16.48828,-5.40235c-5.32422,0 -11.6875,6.96094 -16.48828,5.40235c-4.97657,-1.61719 -6.01953,-11.04297 -10.16407,-14.0586c-4.18359,-3.04297 -13.45703,-1.14453 -16.5039,-5.32812c-3.01563,-4.14453 1.63672,-12.36328 0.02344,-17.33985c-1.5625,-4.80468 -10.20704,-8.69531 -10.20704,-14.01562c0,-5.32422 8.64844,-9.21484 10.20704,-14.01953c1.61718,-4.97656 -3.03516,-13.19531 -0.01954,-17.33985c3.04688,-4.18359 12.32032,-2.28515 16.50391,-5.33203c4.14453,-3.01562 5.1875,-12.4375 10.16406,-14.05468c4.80469,-1.5586 11.16407,5.40234 16.48828,5.40234c5.32422,0 11.6836,-6.96094 16.48829,-5.40234c4.97656,1.61718 6.01953,11.04296 10.16015,14.05468c4.1836,3.04688 13.46094,1.14844 16.50781,5.33203c3.01563,4.14454 -1.64062,12.35938 -0.02343,17.33985c1.55859,4.80078 10.20703,8.6914 10.20703,14.01562zm0,0"/>
  <path id="svg_18" fill="#a4c9ff" d="m101.71094,55.01172c0,5.91406 -4.79688,10.71094 -10.71094,10.71094s-10.71094,-4.79688 -10.71094,-10.71094c0,-5.91406 4.79688,-10.71094 10.71094,-10.71094s10.71094,4.79688 10.71094,10.71094zm0,0"/>
  <path id="svg_19" fill="#6bdddd" d="m74.375,68.89844c0,7.68359 -6.22656,13.91015 -13.91016,13.91015c-7.67968,0 -13.91015,-6.22656 -13.91015,-13.91015c0,-7.6836 6.23047,-13.91016 13.91015,-13.91016c7.6836,0 13.91016,6.22656 13.91016,13.91016zm0,0"/>
  <path id="svg_20" fill="#a4c9ff" d="m100.08984,87.28906c0,6.73828 -5.46484,12.20313 -12.20703,12.20313c-6.74218,0 -12.20703,-5.46485 -12.20703,-12.20313c0,-6.74218 5.46485,-12.20703 12.20703,-12.20703c6.74219,0 12.20703,5.46485 12.20703,12.20703zm0,0"/>
  <path id="svg_21" fill="#a4c9ff" d="m69.07422,102.14453c0,5.92969 -4.80859,10.73828 -10.73438,10.73828c-5.92968,0 -10.73828,-4.80859 -10.73828,-10.73828c0,-5.92969 4.8086,-10.73437 10.73828,-10.73437c5.92579,0 10.73438,4.80468 10.73438,10.73437zm0,0"/>
  <path id="svg_22" fill="#6bdddd" d="m121.93359,72.21875c0,5.07031 -4.10937,9.17969 -9.17968,9.17969c-5.07032,0 -9.17969,-4.10938 -9.17969,-9.17969s4.10937,-9.17969 9.17969,-9.17969c5.07031,0 9.17968,4.10938 9.17968,9.17969zm0,0"/>
  <path id="svg_23" fill="#6bdddd" d="m87.87891,116.44531c0,4.20703 -3.41016,7.61719 -7.61328,7.61719c-4.20704,0 -7.61719,-3.41016 -7.61719,-7.61719c0,-4.20703 3.41015,-7.61718 7.61719,-7.61718c4.20312,0 7.61328,3.41015 7.61328,7.61718zm0,0"/>
  <path id="svg_24" fill="#a4c9ff" d="m121,103.35156c0,5.26172 -4.26953,9.53125 -9.53125,9.53125c-5.26562,0 -9.53125,-4.26953 -9.53125,-9.53125c0,-5.26562 4.26563,-9.53515 9.53125,-9.53515c5.26172,0 9.53125,4.26953 9.53125,9.53515zm0,0"/>
  <text font-weight="bold" xml:space="preserve" text-anchor="start" font-family="'Times New Roman', Times, serif" font-size="42" id="svg_25" y="561" x="23.992188" stroke-width="0" fill="#3762cc">LUNG CANCER CARE</text>
 </g>
</svg>